<?xml version="1.0"?><svg version="1.2" baseProfile="tiny-ps" viewBox="0 0 300 300" xmlns="http://www.w3.org/2000/svg" xmlns:xlink="http://www.w3.org/1999/xlink"><title>AMLYZE</title><g><g fill="#00ade6" transform="matrix(.1 0 0 -.1 0 300)"><path d="M0 1500V0h3000v3000H0V1500z"/></g><g fill="#019fcd" transform="matrix(.1 0 0 -.1 0 300)"><path d="M0 1500V0h3000v3000H0V1500zm1644 478 226-377v-261h-92l-93 1-134 224c-73 124-136 225-140 225-3-1-101-159-218-353s-249-412-293-484l-81-133H480l84 138c46 75 247 409 448 742 381 632 399 662 403 658 1-2 104-173 229-380zm-150-872 56-89V820h-392l4 9c2 5 59 95 128 200l125 190 12-12c6-6 37-52 67-101z"/></g><g fill="#05799c" transform="matrix(.1 0 0 -.1 0 300)"><path d="M0 1500V0h3000v3000H0V1500zm1706 380c157-261 295-490 306-507l20-33h-347l-137 226-136 226-15-24c-8-12-137-225-287-473-149-247-277-456-284-463l-12-13-167 3-166 3 462 767c254 422 465 766 469 765s136-216 294-477zm-160-847 122-188-5-12-5-13h-507l130 200c72 110 134 200 138 200 3 0 61-84 127-187zm667 0c12-21 21-41 19-45-1-5 3-8 9-8h10l-6-10-6-10h23l-12-15-12-14 4-56 3-55h-244l-75 125-75 125h340l22-37z"/></g><g fill="#03435c" transform="matrix(.1 0 0 -.1 0 300)"><path d="M0 1500V0h3000v3000H0V1500zm1729 346c166-275 301-503 301-508v-8l-172 2-173 3-133 220c-72 121-135 221-140 222-4 1-137-214-297-477L825 820H653c-95 0-173 2-173 4 0 4 570 951 827 1375l106 173 8-13c4-8 143-239 308-513zm-169-829c67-103 121-190 118-192-3-3-122-4-266-3l-261 3 132 202 132 202 11-12c6-7 66-97 134-200zm592 57 45-6 72-118c39-65 71-120 71-124 0-3-78-6-172-6h-173l-72 123c-40 68-73 126-73 130v7h129c70 0 148-3 173-6z"/></g><g fill="#00030b" transform="matrix(.1 0 0 -.1 0 300)"><path d="M0 1500V0h3000v3000H0V1500zm1725 358c170-282 310-516 312-520l4-8h-358l-135 225-135 226-15-23c-8-13-127-207-263-433-136-225-263-434-281-462l-34-53H468l4 8c9 25 934 1551 939 1552 3 0 145-231 314-512zm-167-832c72-111 132-206 132-209v-7h-540v9c0 13 261 411 269 411 3 0 66-92 139-204zm715-75c42-71 77-131 77-135v-6l-177 2-177 3-51 85c-28 47-64 106-79 133l-28 47h357l78-129z"/></g></g></svg>